# xmcd CD database file
#
# Track frame offsets:
#	150
#	12067
#	26187
#	37805
#	56143
#	76306
#	84862
#	95995
#	119159
#	128431
#	142329
#	159303
#	172123
#	181504
#	193761
#	217729
#
# Disc length: 3061 seconds
#
# Revision: 1
# Processed by: cddbd v1.5PL3 Copyright (c) Steve Scherf et al.
# Submitted via: CDex 1.50
#
DISCID=d30bf310
DTITLE=Fats Domino - Rock Right Now With The Fat Man  CD2
DYEAR=2001
DGENRE=Blues
TTITLE0=Red Sails In The Sunset
TTITLE1=Walking To New Orleans
TTITLE2=Goin' To The River
TTITLE3=Shake, Rattle And Roll
TTITLE4=Jambalaya
TTITLE5=I'm In Love Again
TTITLE6=Song For Rose Mary
TTITLE7=Dance With Mr. Domino
TTITLE8=I'm Ready
TTITLE9=Poor Me
TTITLE10=Please Don't Leave Me
TTITLE11=So Long (Live)
TTITLE12=Margie
TTITLE13=Valley Of Tears
TTITLE14=If Your Left Eye Jumps
TTITLE15=I'm In The Mood For Love
EXTD=YEAR: 2001
EXTT0=
EXTT1=
EXTT2=
EXTT3=
EXTT4=
EXTT5=
EXTT6=
EXTT7=
EXTT8=
EXTT9=
EXTT10=
EXTT11=
EXTT12=
EXTT13=
EXTT14=
EXTT15=
PLAYORDER=
